<?xml version="1.0" standalone="no"?>
<!DOCTYPE svg PUBLIC "-//W3C//DTD SVG 20010904//EN"
 "http://www.w3.org/TR/2001/REC-SVG-20010904/DTD/svg10.dtd">
<svg version="1.0" xmlns="http://www.w3.org/2000/svg"
 width="598.000000pt" height="598.000000pt" viewBox="0 0 598.000000 598.000000"
 preserveAspectRatio="xMidYMid meet">
<metadata>
Created by potrace 1.14, written by Peter Selinger 2001-2017
</metadata>
<g transform="translate(0.000000,598.000000) scale(0.100000,-0.100000)"
fill="#000000" stroke="none">
<path d="M1285 5243 c-75 -11 -238 -59 -318 -93 -249 -107 -450 -295 -501
-469 -29 -100 -16 -176 39 -219 62 -49 181 -14 270 79 l58 61 -42 24 c-124 75
-82 214 107 356 186 139 465 171 550 64 69 -88 52 -255 -41 -396 -61 -92 -172
-192 -251 -225 l-34 -14 45 112 c24 62 68 183 98 269 61 178 60 185 -20 176
-59 -7 -69 -17 -115 -108 -135 -268 -449 -790 -597 -993 -34 -45 -35 -50 -19
-65 34 -35 253 -13 318 32 37 25 91 120 178 314 60 134 65 142 92 142 l28 0 0
-92 c0 -177 60 -373 132 -433 30 -25 37 -27 105 -23 59 4 79 10 108 32 19 15
35 34 35 42 0 9 -19 35 -43 57 -70 70 -162 274 -182 408 l-7 44 49 24 c294
142 555 547 479 745 -22 58 -81 111 -148 132 -52 17 -302 28 -373 17z m379
-78 c33 -16 67 -41 75 -55 14 -22 12 -21 -22 7 -60 52 -130 68 -292 67 -191
-1 -323 -33 -498 -120 -104 -52 -192 -110 -263 -173 -48 -43 -47 -43 5 9 130
128 338 234 551 281 66 14 118 18 235 16 145 -2 152 -3 209 -32z m-434 -260
c-14 -7 -27 -11 -30 -9 -6 7 22 24 40 23 9 0 5 -6 -10 -14z m-480 -318 c0 -14
-39 23 -52 48 -8 14 -2 12 21 -9 17 -17 31 -34 31 -39z m600 -91 c0 -2 -8 -10
-17 -17 -16 -13 -17 -12 -4 4 13 16 21 21 21 13z m-60 -51 c-29 -31 -175 -107
-197 -103 -10 2 14 16 52 31 39 15 90 43 115 62 54 41 61 43 30 10z m133 -592
c17 -18 26 -33 21 -33 -6 0 -20 10 -31 23 -25 26 -93 138 -93 151 0 6 16 -17
36 -50 19 -32 49 -74 67 -91z"/>
<path d="M2725 5173 c-56 -15 -150 -103 -222 -209 -87 -128 -213 -394 -243
-516 -13 -51 -48 -82 -107 -94 l-30 -6 -5 66 c-3 38 -14 79 -25 98 -57 97
-203 106 -249 15 -9 -17 -38 -51 -65 -75 -119 -106 -191 -317 -145 -425 33
-79 120 -107 224 -73 92 31 202 154 232 260 7 25 18 46 25 46 8 0 34 9 58 19
l45 19 -5 -97 c-9 -160 29 -236 130 -262 66 -16 122 6 193 77 58 59 140 190
150 240 5 26 10 30 28 27 13 -3 40 0 61 6 22 6 40 9 41 8 1 -1 -9 -42 -22 -92
-26 -100 -30 -181 -12 -220 13 -29 55 -55 88 -55 68 0 169 112 287 315 12 22
23 33 23 25 0 -16 -47 -190 -74 -272 -14 -45 -14 -48 4 -58 10 -5 43 -10 74
-10 79 0 105 26 176 175 64 134 102 190 155 231 58 44 63 22 21 -88 -72 -189
-80 -268 -29 -308 36 -28 81 -25 134 8 57 37 109 106 210 278 104 176 109 186
103 196 -12 19 -36 5 -81 -49 -172 -205 -201 -212 -148 -39 47 154 51 233 13
258 -63 40 -190 -51 -305 -219 l-53 -77 0 95 c0 69 -5 103 -18 129 -33 67
-108 75 -173 20 l-34 -28 28 -29 c15 -16 27 -35 27 -41 0 -7 -40 -64 -90 -126
-79 -100 -105 -126 -127 -126 -12 0 8 96 37 181 32 91 32 120 3 166 -34 51
-134 50 -183 -2 l-23 -25 22 -24 c17 -18 22 -32 17 -49 -12 -50 -144 -80 -139
-32 14 111 15 176 3 190 -18 22 -78 19 -114 -6 -47 -32 -69 -67 -74 -119 -6
-62 12 -113 49 -144 29 -25 29 -26 14 -56 -41 -80 -154 -91 -191 -17 -9 16
-16 55 -17 86 l-1 56 109 111 c170 171 263 313 315 482 46 147 12 212 -95 185z
m65 -52 c0 -4 -10 -6 -22 -4 -13 2 -40 -5 -60 -15 -47 -24 -50 -19 -5 8 32 20
87 27 87 11z m-140 -55 c0 -2 -8 -10 -17 -17 -16 -13 -17 -12 -4 4 13 16 21
21 21 13z m-34 -178 c-9 -52 -91 -209 -141 -273 -25 -32 -45 -54 -45 -48 0 6
14 50 30 97 55 156 176 329 156 224z m74 -330 c0 -6 -3 -9 -6 -5 -3 3 -18 1
-33 -4 -24 -9 -25 -8 -7 6 24 18 46 20 46 3z m-692 -19 c31 -11 62 -47 62 -71
-1 -7 -7 -1 -16 14 -8 15 -23 32 -34 38 -26 14 -93 13 -110 -2 -12 -11 -12
-10 -1 4 7 9 22 19 34 21 12 2 25 5 28 6 3 0 20 -4 37 -10z m1712 2 c0 -4 -11
-6 -24 -4 -13 3 -34 0 -47 -7 -23 -11 -23 -10 -5 4 21 17 76 22 76 7z m-726
-19 c2 -4 -15 -7 -39 -7 -24 0 -41 3 -38 8 6 9 70 9 77 -1z m318 -9 c10 -9 18
-21 18 -27 0 -6 -7 0 -16 13 -13 18 -24 22 -50 19 -18 -2 -30 0 -28 4 9 14 57
9 76 -9z m-1375 -243 c23 -7 40 -17 36 -22 -3 -6 -26 -23 -51 -39 -48 -31 -90
-37 -110 -17 -15 15 -16 95 -1 136 l11 31 36 -38 c22 -23 54 -44 79 -51z m792
64 c14 -12 -19 -1 -35 12 -18 14 -18 14 6 3 14 -6 27 -13 29 -15z m-299 -159
c33 -17 97 -20 135 -5 14 5 24 6 21 1 -3 -4 -25 -14 -50 -21 -34 -9 -52 -9
-80 0 -35 11 -86 61 -86 83 1 7 7 0 16 -15 8 -15 28 -35 44 -43z m586 -28 c12
4 15 3 10 -5 -12 -19 -44 -14 -60 10 -24 34 -19 40 8 13 16 -16 31 -22 42 -18z
m-1189 -11 c14 -5 41 1 70 13 46 20 47 20 25 1 -50 -42 -128 -36 -153 12 l-12
23 24 -21 c13 -12 34 -25 46 -28z m1883 21 c13 -5 13 -6 -1 -6 -8 -1 -24 6
-35 15 -19 15 -19 15 1 6 11 -5 27 -12 35 -15z"/>
<path d="M3074 4926 c-74 -33 -141 -161 -115 -223 30 -73 107 -69 186 10 124
124 74 276 -71 213z m90 -42 c4 -9 4 -19 1 -22 -3 -3 -5 0 -5 6 0 19 -38 23
-70 7 -37 -19 -40 -11 -2 9 36 20 68 20 76 0z"/>
<path d="M0 3000 l0 -1460 160 0 160 0 0 45 0 45 -115 0 -115 0 0 1370 0 1370
125 0 125 0 0 45 0 45 -170 0 -170 0 0 -1460z"/>
<path d="M4150 4415 l0 -45 865 0 865 0 0 -1370 0 -1370 -1877 -2 -1878 -3 -3
-42 -3 -43 1930 0 1931 0 0 1460 0 1460 -915 0 -915 0 0 -45z"/>
<path d="M530 2885 l0 -805 100 0 100 0 0 365 0 365 125 0 125 0 0 75 0 74
-122 3 -123 3 -3 283 -2 282 155 0 155 0 0 80 0 80 -255 0 -255 0 0 -805z"/>
<path d="M1217 3684 c-3 -4 -7 -346 -7 -760 l0 -754 58 -45 57 -45 190 0 191
0 57 42 57 42 0 763 0 763 -100 0 -100 0 0 -730 0 -730 -100 0 -100 0 -2 728
-3 727 -95 3 c-53 1 -99 0 -103 -4z"/>
<path d="M1990 2885 l0 -805 234 0 233 0 2 75 2 75 -135 0 -136 0 0 730 0 730
-100 0 -100 0 0 -805z"/>
<path d="M2630 2885 l0 -805 100 0 100 0 0 365 0 365 125 0 125 0 0 75 0 75
-125 0 -125 0 0 285 0 285 155 0 155 0 0 80 0 80 -255 0 -255 0 0 -805z"/>
<path d="M3372 3644 l-62 -46 0 -718 0 -717 59 -42 59 -41 187 0 187 0 59 43
58 42 1 717 0 717 -64 45 -64 46 -179 0 -179 0 -62 -46z m338 -764 l0 -650
-100 0 -100 0 0 650 0 650 100 0 100 0 0 -650z"/>
<path d="M4090 2885 l0 -805 100 0 100 0 0 360 0 360 105 0 105 0 0 -360 0
-360 100 0 100 0 0 365 0 364 -45 33 c-24 18 -44 36 -45 39 0 3 20 20 45 39
l45 34 0 323 0 323 -62 45 -62 45 -243 0 -243 0 0 -805z m410 360 l0 -285
-105 0 -105 0 0 285 0 285 105 0 105 0 0 -285z"/>
<path d="M4870 2885 l0 -805 248 0 249 0 56 41 57 40 0 722 -1 722 -59 43 -60
42 -245 0 -245 0 0 -805z m410 -5 l0 -650 -105 0 -105 0 0 650 0 650 105 0
105 0 0 -650z"/>
<path d="M1191 2078 c-5 -13 -42 -127 -82 -255 l-74 -232 -269 -3 -269 -3 189
-138 c104 -75 201 -147 216 -160 l28 -22 -44 -137 c-25 -75 -42 -146 -39 -156
4 -15 21 -21 91 -30 l87 -12 111 57 c97 49 114 54 127 42 8 -8 61 -48 118 -89
56 -41 138 -101 181 -132 43 -32 78 -52 77 -45 0 6 -24 84 -53 172 l-52 160
-54 1 c-30 0 -156 15 -280 33 -179 26 -229 30 -244 20 -25 -15 30 55 70 91 23
20 25 21 10 3 -18 -22 -18 -22 5 -27 13 -3 114 -17 224 -31 110 -14 210 -28
223 -31 23 -5 23 -3 17 49 l-7 54 66 48 c36 27 64 50 62 52 -2 2 -73 13 -157
24 -85 11 -167 24 -184 28 l-30 8 51 26 c28 14 54 24 57 20 3 -3 83 -16 178
-28 l173 -24 88 65 c49 35 93 64 98 64 6 0 10 3 10 8 0 4 12 15 28 25 l27 18
-75 -2 c-41 -1 -174 -1 -296 0 l-220 1 -83 255 c-45 140 -84 255 -87 255 -2 0
-8 -10 -13 -22z m566 -504 c-3 -3 -12 -4 -19 -1 -8 3 -5 6 6 6 11 1 17 -2 13
-5z m-667 -278 c0 -2 -8 -10 -17 -17 -16 -13 -17 -12 -4 4 13 16 21 21 21 13z
m-217 -281 c-9 -19 -18 -33 -21 -31 -4 5 26 66 33 66 3 0 -3 -16 -12 -35z"/>
<path d="M1860 1160 l0 -230 25 0 25 0 0 105 0 105 31 0 c26 0 30 3 27 23 -2
16 -11 23 -30 25 -28 3 -28 4 -28 78 l0 74 35 0 c31 0 35 3 35 25 0 24 -3 25
-60 25 l-60 0 0 -230z"/>
<path d="M2032 1378 c-17 -17 -17 -419 0 -436 7 -7 36 -12 65 -12 41 0 54 4
63 19 6 12 10 99 10 214 0 175 -2 195 -18 210 -22 20 -102 23 -120 5z m78
-218 c0 -173 -1 -180 -20 -180 -19 0 -20 7 -20 180 0 173 1 180 20 180 19 0
20 -7 20 -180z"/>
<path d="M2200 1160 l0 -230 25 0 25 0 0 100 0 100 25 0 25 0 0 -100 c0 -100
0 -100 25 -100 l24 0 0 217 c0 141 -4 221 -11 230 -6 8 -34 13 -74 13 l-64 0
0 -230z m100 99 c0 -78 -1 -80 -22 -77 -21 3 -23 9 -26 81 -3 77 -3 77 23 77
25 0 25 -1 25 -81z"/>
<path d="M2530 1172 c0 -156 3 -221 12 -230 7 -7 36 -12 65 -12 41 0 54 4 63
19 6 12 10 104 10 230 l0 211 -30 0 -30 0 0 -205 c0 -198 -1 -205 -20 -205
-19 0 -20 7 -20 205 l0 205 -25 0 -25 0 0 -218z"/>
<path d="M2812 1378 c-7 -7 -12 -41 -12 -82 0 -70 1 -72 50 -135 47 -60 50
-67 50 -122 0 -52 -2 -59 -20 -59 -17 0 -20 7 -20 40 0 38 -2 40 -30 40 -30 0
-30 -1 -30 -53 0 -29 5 -58 12 -65 16 -16 110 -16 126 0 7 7 12 43 12 92 0 79
0 80 -45 137 -41 52 -45 62 -45 113 0 49 2 56 20 56 17 0 20 -7 20 -40 0 -36
3 -40 25 -40 24 0 25 3 25 53 0 29 -5 58 -12 65 -7 7 -35 12 -63 12 -28 0 -56
-5 -63 -12z"/>
<path d="M3232 1378 c-17 -17 -17 -419 0 -436 16 -16 110 -16 126 0 7 7 12 36
12 65 0 52 0 53 -30 53 -28 0 -30 -2 -30 -40 0 -33 -3 -40 -20 -40 -19 0 -20
7 -20 180 0 172 1 180 19 180 16 0 20 -8 23 -42 3 -39 6 -43 31 -46 27 -3 27
-2 27 52 0 36 -5 60 -16 70 -19 19 -104 22 -122 4z"/>
<path d="M3418 1379 c-16 -9 -18 -30 -18 -217 0 -149 3 -211 12 -220 7 -7 35
-12 63 -12 28 0 56 5 63 12 17 17 17 419 0 436 -15 15 -96 15 -120 1z m82
-219 c0 -169 -1 -180 -19 -180 -24 0 -29 30 -30 213 l-2 147 26 0 25 0 0 -180z"/>
<path d="M3588 1160 l-3 -230 28 0 27 0 1 78 2 77 14 -77 c15 -76 16 -78 44
-78 l29 0 0 230 0 230 -30 0 -30 0 -1 -72 c-1 -40 -3 -64 -6 -53 -2 11 -9 44
-14 73 -9 45 -13 52 -34 52 l-24 0 -3 -230z"/>
<path d="M3772 1378 c-17 -17 -17 -419 0 -436 16 -16 110 -16 126 0 8 8 12 46
12 105 l0 93 -40 0 c-36 0 -40 -2 -40 -25 0 -16 6 -25 15 -25 12 0 15 -13 15
-55 0 -52 -1 -55 -25 -55 l-25 0 0 180 0 180 26 0 c24 0 25 -3 22 -42 -3 -40
-1 -43 25 -46 27 -3 27 -3 27 55 0 33 -5 64 -12 71 -7 7 -35 12 -63 12 -28 0
-56 -5 -63 -12z"/>
<path d="M3944 1377 c-2 -7 -3 -109 -2 -227 l3 -215 28 -3 27 -3 0 100 c0 94
1 101 20 101 19 0 20 -7 20 -100 l0 -100 26 0 25 0 -1 118 c-1 64 -1 122 0
127 6 39 -3 192 -12 202 -14 18 -127 18 -134 0z m96 -117 c0 -73 -2 -80 -20
-80 -18 0 -20 7 -20 80 0 73 2 80 20 80 18 0 20 -7 20 -80z"/>
<path d="M4130 1160 l0 -230 65 0 c63 0 65 1 65 25 0 23 -4 25 -40 25 l-40 0
0 80 0 80 30 0 c25 0 30 4 30 25 0 21 -5 25 -30 25 l-30 0 0 75 0 75 40 0 c36
0 40 3 40 25 0 24 -2 25 -65 25 l-65 0 0 -230z"/>
<path d="M4302 1378 c-7 -7 -12 -41 -12 -83 0 -70 1 -71 50 -132 48 -59 50
-65 50 -122 0 -54 -2 -61 -20 -61 -17 0 -20 7 -20 40 0 38 -2 40 -30 40 -30 0
-30 -1 -30 -53 0 -29 5 -58 12 -65 16 -16 110 -16 126 0 7 7 12 43 12 92 0 79
0 80 -45 137 -41 52 -45 62 -45 113 0 49 2 56 20 56 17 0 20 -7 20 -40 0 -36
3 -40 25 -40 24 0 25 3 25 53 0 29 -5 58 -12 65 -7 7 -35 12 -63 12 -28 0 -56
-5 -63 -12z"/>
<path d="M4492 1378 c-7 -7 -12 -42 -12 -87 0 -73 1 -76 45 -132 42 -54 45
-61 45 -118 0 -54 -2 -61 -20 -61 -17 0 -20 7 -20 40 0 36 -2 40 -25 40 -24 0
-25 -3 -25 -53 0 -29 5 -58 12 -65 16 -16 100 -16 116 0 7 7 12 44 12 96 l0
83 -45 56 c-41 50 -45 60 -45 109 0 47 2 54 20 54 17 0 20 -7 20 -40 0 -37 2
-40 28 -40 26 0 27 1 23 52 -1 29 -8 59 -13 66 -13 15 -100 16 -116 0z"/>
<path d="M4800 1365 c0 -20 5 -25 25 -25 l25 0 0 -205 0 -205 25 0 25 0 0 205
0 205 25 0 c20 0 25 5 25 25 0 24 -2 25 -75 25 -73 0 -75 -1 -75 -25z"/>
<path d="M4974 1373 c3 -10 15 -63 26 -117 l20 -100 -20 -95 c-11 -53 -23
-104 -26 -114 -5 -15 -1 -18 22 -15 26 3 30 8 39 58 l11 55 8 -40 c12 -68 16
-75 42 -75 13 0 24 2 24 3 0 2 -11 54 -25 115 l-24 112 24 112 c14 61 25 113
25 115 0 1 -11 3 -24 3 -26 0 -30 -7 -42 -75 l-8 -40 -11 55 c-9 50 -13 55
-39 58 -23 3 -27 0 -22 -15z"/>
<path d="M5292 1378 c-9 -9 -12 -71 -12 -218 0 -147 3 -209 12 -218 18 -18
103 -15 118 4 8 8 15 37 16 65 3 48 3 49 -26 49 -28 0 -30 -2 -30 -40 0 -33
-3 -40 -20 -40 -19 0 -20 7 -20 180 0 172 1 180 19 180 16 0 20 -8 23 -42 3
-38 6 -43 28 -43 23 0 25 4 26 50 2 74 -7 85 -69 85 -29 0 -58 -5 -65 -12z"/>
<path d="M5460 1160 l0 -230 63 0 c36 0 68 5 75 12 9 9 12 71 12 218 0 147 -3
209 -12 218 -7 7 -39 12 -75 12 l-63 0 0 -230z m100 0 l0 -180 -25 0 -25 0 0
180 0 180 25 0 25 0 0 -180z"/>
<path d="M5662 1378 c-7 -7 -12 -36 -12 -65 0 -50 1 -53 25 -53 23 0 25 4 25
40 0 33 3 40 20 40 32 0 25 -45 -25 -157 -45 -100 -51 -127 -47 -210 l2 -43
70 0 70 0 0 60 c0 57 -1 60 -25 60 -22 0 -25 -4 -25 -35 0 -28 -4 -35 -20 -35
-36 0 -26 74 25 184 35 76 45 109 45 150 0 28 -5 57 -12 64 -7 7 -33 12 -58
12 -25 0 -51 -5 -58 -12z"/>
<path d="M5132 1223 c2 -14 15 -19 61 -21 52 -3 57 -1 57 18 0 18 -6 20 -61
20 -52 0 -60 -2 -57 -17z"/>
<path d="M2710 955 c0 -21 5 -25 30 -25 25 0 30 4 30 25 0 21 -5 25 -30 25
-25 0 -30 -4 -30 -25z"/>
<path d="M2990 955 c0 -20 5 -25 25 -25 20 0 25 5 25 25 0 20 -5 25 -25 25
-20 0 -25 -5 -25 -25z"/>
<path d="M797 821 c-27 -109 -25 -110 67 -24 l84 78 -36 7 c-21 4 -51 7 -68 7
-30 1 -31 -1 -47 -68z"/>
</g>
</svg>
